<?xml version="1.0" encoding="UTF-8" standalone="no"?>
<svg
   width="220"
   height="109"
   viewBox="0 0 220 109"
   fill="none"
   version="1.1"
   id="svg79"
   sodipodi:docname="epos_by_white.svg"
   inkscape:export-filename="epos_by.jpg"
   inkscape:export-xdpi="300"
   inkscape:export-ydpi="300"
   inkscape:version="1.2.2 (732a01da63, 2022-12-09)"
   xmlns:inkscape="http://www.inkscape.org/namespaces/inkscape"
   xmlns:sodipodi="http://sodipodi.sourceforge.net/DTD/sodipodi-0.dtd"
   xmlns="http://www.w3.org/2000/svg"
   xmlns:svg="http://www.w3.org/2000/svg">
  <defs
     id="defs83">
    <rect
       x="106.93361"
       y="58.577045"
       width="130.12036"
       height="21.356215"
       id="rect852" />
  </defs>
  <sodipodi:namedview
     id="namedview81"
     pagecolor="#ffffff"
     bordercolor="#000000"
     borderopacity="0.25"
     inkscape:showpageshadow="2"
     inkscape:pageopacity="0.0"
     inkscape:pagecheckerboard="0"
     inkscape:deskcolor="#d1d1d1"
     showgrid="false"
     inkscape:zoom="2.3177083"
     inkscape:cx="170.6427"
     inkscape:cy="36.458427"
     inkscape:window-width="1920"
     inkscape:window-height="1010"
     inkscape:window-x="-7"
     inkscape:window-y="-7"
     inkscape:window-maximized="1"
     inkscape:current-layer="svg79" />
  <path
     d="m 122.09723,47.498675 c -2.79218,0 -5.02347,-0.862292 -6.69303,-2.586876 -1.66956,-1.751931 -2.58687,-4.1335 -2.75112,-7.144707 l -0.0411,-1.396091 0.0411,-1.355031 c 0.16425,-2.95643 1.08156,-5.31057 2.75112,-7.062584 1.66956,-1.751931 3.90085,-2.627938 6.69303,-2.627938 3.01146,0 5.338,0.95813 6.98046,2.874307 1.66957,1.91626 2.50475,4.516769 2.50475,7.801692 v 0.739107 c 0,0.273799 -0.0961,0.506453 -0.28742,0.698046 -0.16425,0.164246 -0.38352,0.24637 -0.65699,0.24637 h -14.24835 v 0.369553 c 0.0821,1.779361 0.62988,3.298637 1.64246,4.55783 1.01258,1.259275 2.35447,1.888831 4.02403,1.888831 1.28687,0 2.32654,-0.246369 3.12068,-0.739108 0.82122,-0.520085 1.43715,-1.053885 1.84777,-1.601399 0.24636,-0.328493 0.43771,-0.520086 0.57486,-0.574862 0.13715,-0.08212 0.36955,-0.123185 0.69805,-0.123185 h 1.8067 c 0.24637,0 0.45168,0.06849 0.61593,0.205308 0.19134,0.1369 0.28742,0.31486 0.28742,0.5338 0,0.602291 -0.36955,1.327684 -1.10866,2.176261 -0.73911,0.84866 -1.79274,1.587767 -3.16174,2.217323 -1.34107,0.60229 -2.88827,0.903353 -4.63995,0.903353 z m 5.74861,-12.60589 V 34.7696 c 0,-1.916177 -0.51983,-3.476516 -1.56033,-4.681014 -1.0405,-1.204417 -2.4366,-1.806707 -4.18828,-1.806707 -1.77961,0 -3.1757,0.60229 -4.18827,1.806707 -1.01258,1.204498 -1.51928,2.764837 -1.51928,4.681014 v 0.123185 z m 9.71517,19.996966 c -0.27429,0 -0.5067,-0.08212 -0.69805,-0.246369 -0.16425,-0.164246 -0.24637,-0.3969 -0.24637,-0.698046 V 26.680479 c 0,-0.301063 0.0821,-0.5338 0.24637,-0.698047 0.19135,-0.164245 0.42376,-0.246369 0.69805,-0.246369 h 1.72458 c 0.30057,0 0.5338,0.08213 0.69805,0.246369 0.16425,0.164247 0.24636,0.396984 0.24636,0.698047 v 1.806707 c 1.58744,-2.10777 3.84583,-3.161738 6.77516,-3.161738 2.8743,0 5.02264,0.917069 6.44665,2.751123 1.4503,1.806707 2.21733,4.119867 2.29946,6.939399 0.0271,0.301145 0.0411,0.766536 0.0411,1.396092 0,0.629637 -0.0139,1.095028 -0.0411,1.396092 -0.0822,2.792184 -0.84916,5.105344 -2.29946,6.939398 -1.42401,1.834138 -3.57235,2.751123 -6.44665,2.751123 -2.92933,0 -5.14665,-1.04017 -6.65197,-3.120676 v 9.567337 c 0,0.273798 -0.0961,0.492738 -0.28743,0.656985 -0.16425,0.191674 -0.38352,0.28743 -0.65698,0.28743 z m 8.66397,-10.593875 c 1.97096,0 3.40812,-0.615923 4.31147,-1.847769 0.90336,-1.231845 1.39609,-2.846878 1.47822,-4.845261 0.0271,-0.273716 0.0411,-0.670617 0.0411,-1.190784 0,-5.255876 -1.94386,-7.883814 -5.83074,-7.883814 -1.91675,0 -3.36705,0.643352 -4.35252,1.929891 -0.95838,1.259276 -1.46508,2.751123 -1.51928,4.475708 -0.028,0.301146 -0.0411,0.834945 -0.0411,1.6014 0,0.766536 0.0131,1.300336 0.0411,1.601399 0.0542,1.669891 0.57486,3.120677 1.56034,4.352522 1.01258,1.2045 2.44973,1.806708 4.31146,1.806708 z m 23.3944,3.202799 c -3.01063,0 -5.338,-0.848577 -6.98046,-2.545815 -1.61453,-1.697155 -2.47683,-3.955539 -2.58688,-6.775153 l -0.0411,-1.765645 0.0411,-1.765646 c 0.11001,-2.819531 0.98549,-5.077916 2.62795,-6.775153 1.67038,-1.697155 3.98296,-2.545815 6.93939,-2.545815 2.95644,0 5.25589,0.84866 6.89834,2.545815 1.67039,1.697237 2.55978,3.955622 2.669,6.775153 0.055,0.60229 0.0822,1.190785 0.0822,1.765646 0,0.574861 -0.0271,1.163437 -0.0822,1.765645 -0.10923,2.819614 -0.98548,5.077998 -2.62793,6.775153 -1.61455,1.697238 -3.92796,2.545815 -6.93941,2.545815 z m 0,-3.079614 c 1.75251,0 3.13464,-0.547433 4.14723,-1.642462 1.04049,-1.122294 1.60139,-2.723693 1.68352,-4.804199 0.0279,-0.273716 0.0411,-0.793801 0.0411,-1.560338 0,-0.766454 -0.0131,-1.28654 -0.0411,-1.560338 -0.0822,-2.080424 -0.64303,-3.668109 -1.68352,-4.763138 -1.01259,-1.122294 -2.39472,-1.683523 -4.14723,-1.683523 -1.75168,0 -3.14777,0.561229 -4.18828,1.683523 -1.01257,1.095029 -1.56033,2.682714 -1.64245,4.763138 l -0.0411,1.560338 0.0411,1.560338 c 0.0822,2.080506 0.62988,3.681905 1.64245,4.804199 1.04051,1.095029 2.4366,1.642462 4.18828,1.642462 z m 22.14284,3.079614 c -1.88883,0 -3.49022,-0.301063 -4.8042,-0.903353 -1.28604,-0.629556 -2.24442,-1.341316 -2.8743,-2.1352 -0.62906,-0.793802 -0.94441,-1.450786 -0.94441,-1.970954 0,-0.273715 0.0961,-0.479023 0.28742,-0.615922 0.19218,-0.164247 0.39748,-0.246369 0.61593,-0.246369 h 1.72458 c 0.16425,0 0.28744,0.02743 0.36956,0.08212 0.11,0.05478 0.24636,0.177961 0.41061,0.369554 0.62989,0.766537 1.32794,1.368745 2.09415,1.806708 0.79412,0.438044 1.84775,0.656985 3.16173,0.656985 1.47822,0 2.65586,-0.273717 3.53129,-0.821231 0.90336,-0.547432 1.35503,-1.341316 1.35503,-2.38157 0,-0.68433 -0.19135,-1.231845 -0.57486,-1.64246 -0.38269,-0.410615 -1.02654,-0.780169 -1.9299,-1.108662 -0.87542,-0.328492 -2.18939,-0.684331 -3.9419,-1.0676 -2.38157,-0.520085 -4.06509,-1.272907 -5.05057,-2.258384 -0.98547,-0.985476 -1.47821,-2.258384 -1.47821,-3.818722 0,-1.012824 0.30139,-1.984586 0.90335,-2.915369 0.60278,-0.958047 1.49218,-1.724584 2.669,-2.299446 1.20475,-0.602209 2.62793,-0.903354 4.2704,-0.903354 1.72459,0 3.18966,0.287432 4.39358,0.862293 1.23185,0.574861 2.14917,1.24556 2.75113,2.012014 0.62988,0.766537 0.94441,1.409808 0.94441,1.929893 0,0.246369 -0.0953,0.451676 -0.28742,0.615923 -0.16425,0.164246 -0.36957,0.246369 -0.61593,0.246369 h -1.56034 c -0.38269,0 -0.65699,-0.150532 -0.82123,-0.451677 -0.46482,-0.520085 -0.86229,-0.916986 -1.19078,-1.190784 -0.30058,-0.301063 -0.75225,-0.547433 -1.35503,-0.739108 -0.60197,-0.21894 -1.35504,-0.328492 -2.25839,-0.328492 -1.34107,0 -2.3676,0.28743 -3.07961,0.862291 -0.71119,0.547515 -1.0676,1.286623 -1.0676,2.217323 0,0.574862 0.1511,1.067601 0.45167,1.478216 0.30139,0.383268 0.87625,0.752822 1.72459,1.108661 0.84914,0.328493 2.10809,0.670699 3.77766,1.026539 2.60083,0.547514 4.43464,1.327683 5.50224,2.340507 1.09552,1.012906 1.64247,2.31316 1.64247,3.900846 0,1.177152 -0.34164,2.244751 -1.02655,3.202799 -0.65698,0.95813 -1.6556,1.710952 -2.99749,2.258384 -1.31396,0.547515 -2.88744,0.82123 -4.72208,0.82123 z"
     fill="#000000"
     id="path49"
     style="stroke-width:0.82123;fill:#ffffff" />
  <path
     d="m 31.26897,24.874034 c 0.874934,0 1.584317,0.707243 1.584317,1.579637 v 7.371776 c 0,0.872394 -0.709383,1.579638 -1.584317,1.579638 h -7.39354 c -0.875024,0 -1.584317,-0.707244 -1.584317,-1.579638 v -7.371776 c 0,-0.872394 0.709293,-1.579637 1.584317,-1.579637 z"
     fill="#ec3e37"
     id="path51"
     style="stroke-width:0.82123;fill:#ffffff" />
  <path
     fill-rule="evenodd"
     clip-rule="evenodd"
     d="m 41.038902,9.0774158 c 4.375027,0 7.921594,3.5361942 7.921594,7.8983092 V 51.201703 H 14.633563 c -4.374983,0 -7.9216099,-3.536137 -7.9216099,-7.898268 v -26.32771 c 0,-4.362115 3.5466269,-7.8983092 7.9216099,-7.8983092 z M 39.982717,14.34295 c 2.041658,0 3.696686,1.65023 3.696686,3.68588 v 24.221458 c 0,2.035667 -1.655028,3.68593 -3.696686,3.68593 H 15.689814 c -2.041702,0 -3.696786,-1.650263 -3.696786,-3.68593 V 18.02883 c 0,-2.03565 1.655084,-3.68588 3.696786,-3.68588 z"
     fill="#ec3e37"
     id="path53"
     style="stroke-width:0.82123;fill:#ffffff" />
  <path
     d="m 71.669082,24.874034 c -0.874946,0 -1.584317,0.707243 -1.584317,1.579637 v 7.371776 c 0,0.872394 0.709371,1.579638 1.584317,1.579638 h 7.39354 c 0.875023,0 1.584317,-0.707244 1.584317,-1.579638 v -7.371776 c 0,-0.872394 -0.709294,-1.579637 -1.584317,-1.579637 z"
     fill="#ec3e37"
     id="path55"
     style="stroke-width:0.82123;fill:#ffffff" />
  <path
     fill-rule="evenodd"
     clip-rule="evenodd"
     d="m 61.89915,9.0774158 c -4.375028,0 -7.921594,3.5361942 -7.921594,7.8983092 V 51.201703 H 88.3045 c 4.374694,0 7.921594,-3.536137 7.921594,-7.898268 v -26.32771 c 0,-4.362115 -3.5469,-7.8983092 -7.921594,-7.8983092 z m 1.056185,5.2655342 c -2.041669,0 -3.696776,1.65023 -3.696776,3.68588 v 24.221458 c 0,2.035667 1.655107,3.68593 3.696776,3.68593 h 24.292902 c 2.041747,0 3.69652,-1.650263 3.69652,-3.68593 V 18.02883 c 0,-2.03565 -1.654773,-3.68588 -3.69652,-3.68588 z"
     fill="#ec3e37"
     id="path57"
     style="stroke-width:0.82123;fill:#ffffff" />
  <path
     d="m 85.663921,58.046907 c 0,-0.872393 0.709371,-1.579638 1.584316,-1.579638 h 2.11237 c 0.875424,0 1.58415,0.707245 1.58415,1.579638 v 3.685847 h -5.280836 z"
     fill="#ec3e37"
     id="path59"
     style="stroke-width:0.82123;fill:#ffffff" />
  <path
     d="m 90.944757,72.263887 h -3.69652 c -0.874945,0 -1.584316,-0.707244 -1.584316,-1.57972 v -8.951413 h -3.696687 c -0.875023,0 -1.584328,0.707243 -1.584328,1.579719 v 2.106211 c 0,0.872393 -0.709371,1.579637 -1.584316,1.579637 h -2.112448 c -0.875024,0 -1.584317,0.707243 -1.584317,1.579637 v 2.106209 c 0,0.872476 0.709293,1.57972 1.584317,1.57972 h 2.112448 c 0.874945,0 1.584316,0.707244 1.584316,1.579638 v 8.951413 h -3.696764 c -0.875024,0 -1.584317,0.707244 -1.584317,1.579637 v 2.106211 c 0,0.872475 -0.709293,1.57972 -1.584317,1.57972 h -3.696775 v -3.685931 c 0,-0.872393 -0.709294,-1.579637 -1.584317,-1.579637 h -2.112448 c -0.874945,0 -1.584317,0.707244 -1.584317,1.579637 v 2.106211 c 0,0.872475 0.709372,1.57972 1.584317,1.57972 h 3.696765 v 8.950998 c 0,0.872975 0.709304,1.580052 1.584316,1.580052 h 2.112459 c 0.875024,0 1.584317,-0.707077 1.584317,-1.580052 V 94.90587 c 0,-0.872964 0.709293,-1.580041 1.584317,-1.580041 h 2.112448 c 0.874945,0 1.584316,-0.707078 1.584316,-1.579229 v -8.951662 h 3.696698 c 0.875012,0 1.584317,-0.707243 1.584317,-1.579636 v -2.106211 c 0,-0.872475 0.709371,-1.57972 1.584316,-1.57972 h 3.69652 v 8.951415 c 0,0.872475 0.709549,1.57972 1.584973,1.57972 h 2.112204 c 0.874611,0 1.58416,-0.707245 1.58416,-1.57972 v -7.371695 c 0,-0.872475 -0.709549,-1.57972 -1.58416,-1.57972 h -3.697177 z"
     fill="#ec3e37"
     id="path61"
     style="stroke-width:0.82123;fill:#ffffff" />
  <path
     d="m 90.944757,72.263887 h 3.697177 c 0.874611,0 1.58416,-0.707244 1.58416,-1.57972 v -7.371694 c 0,-0.872476 -0.709549,-1.579719 -1.58416,-1.579719 h -3.697177 z"
     fill="#ec3e37"
     id="path63"
     style="stroke-width:0.82123;fill:#ffffff" />
  <path
     d="m 64.539651,63.312473 c 0,-0.872476 0.709372,-1.579719 1.584317,-1.579719 h 3.696765 v 8.951413 c 0,0.872476 -0.709294,1.57972 -1.584317,1.57972 h -2.112448 c -0.874945,0 -1.584317,0.707244 -1.584317,1.579638 v 2.106209 c 0,0.872476 -0.709304,1.579637 -1.584316,1.579637 h -2.11237 c -0.875024,0 -1.584406,-0.707161 -1.584406,-1.579637 v -2.106209 c 0,-0.872394 -0.709293,-1.579638 -1.584316,-1.579638 h -2.112371 c -0.875023,0 -1.584316,-0.707244 -1.584316,-1.57972 v -2.106209 c 0,-0.872394 0.709293,-1.579637 1.584316,-1.579637 h 7.393463 c 0.875012,0 1.584316,-0.707244 1.584316,-1.579637 z"
     fill="#ec3e37"
     id="path65"
     style="stroke-width:0.82123;fill:#ffffff" />
  <path
     d="m 73.517508,61.732754 h -3.696775 v -3.685847 c 0,-0.872393 0.709304,-1.579638 1.584316,-1.579638 h 2.112459 c 0.875024,0 1.584317,0.707245 1.584317,1.579638 v 2.10621 c 0,0.872476 -0.709293,1.579637 -1.584317,1.579637 z"
     fill="#ec3e37"
     id="path67"
     style="stroke-width:0.82123;fill:#ffffff" />
  <path
     d="m 94.641934,93.325829 c 0.874611,0 1.58416,0.707077 1.58416,1.580041 v 2.105634 c 0,0.872975 -0.709549,1.580052 -1.58416,1.580052 h -7.393697 c -0.874945,0 -1.584316,-0.707077 -1.584316,-1.580052 V 94.90587 c 0,-0.872964 0.709371,-1.580041 1.584316,-1.580041 z"
     fill="#ec3e37"
     id="path69"
     style="stroke-width:0.82123;fill:#ffffff" />
  <path
     d="m 64.539651,94.90587 c 0,-0.872964 -0.709304,-1.580041 -1.584316,-1.580041 h -2.11237 c -0.875024,0 -1.584406,0.707077 -1.584406,1.580041 v 2.105634 c 0,0.872975 0.709382,1.580052 1.584406,1.580052 h 2.11237 c 0.875012,0 1.584316,-0.707077 1.584316,-1.580052 z"
     fill="#ec3e37"
     id="path71"
     style="stroke-width:0.82123;fill:#ffffff" />
  <path
     d="m 53.977556,58.046907 c 0,-0.872393 0.709293,-1.579638 1.584316,-1.579638 h 2.112371 c 0.875023,0 1.584316,0.707245 1.584316,1.579638 v 2.10621 c 0,0.872476 -0.709293,1.579637 -1.584316,1.579637 h -2.112371 c -0.875023,0 -1.584316,-0.707161 -1.584316,-1.579637 z"
     fill="#ec3e37"
     id="path73"
     style="stroke-width:0.82123;fill:#ffffff" />
  <path
     d="m 31.26897,82.794938 c 0.874934,0 1.584317,-0.707243 1.584317,-1.579636 v -7.371777 c 0,-0.872394 -0.709383,-1.579638 -1.584317,-1.579638 h -7.39354 c -0.875024,0 -1.584317,0.707244 -1.584317,1.579638 v 7.371777 c 0,0.872393 0.709293,1.579636 1.584317,1.579636 z"
     fill="#ec3e37"
     id="path75"
     style="stroke-width:0.82123;fill:#ffffff" />
  <path
     fill-rule="evenodd"
     clip-rule="evenodd"
     d="m 41.038902,98.591556 c 4.375027,0 7.921594,-3.536223 7.921594,-7.898268 V 56.467269 H 14.633563 c -4.374983,0 -7.9216099,3.536137 -7.9216099,7.898268 v 26.327751 c 0,4.362045 3.5466269,7.898268 7.9216099,7.898268 z m -1.056185,-5.265727 c 2.041658,0 3.696686,-1.649852 3.696686,-3.685687 V 65.418684 c 0,-2.035667 -1.655028,-3.68593 -3.696686,-3.68593 H 15.689814 c -2.041702,0 -3.696786,1.650263 -3.696786,3.68593 v 24.221458 c 0,2.035835 1.655084,3.685687 3.696786,3.685687 z"
     fill="#ec3e37"
     id="path77"
     style="stroke-width:0.82123;fill:#ffffff" />
  <text
     xml:space="preserve"
     style="fill:#000000"
     x="141.2561"
     y="90.763908"
     id="text393"><tspan
       sodipodi:role="line"
       id="tspan391"
       x="141.2561"
       y="90.763908" /></text>
  <text
     xml:space="preserve"
     style="fill:#5b5e67;fill-opacity:1"
     x="114.40829"
     y="84.814674"
     id="text794"><tspan
       sodipodi:role="line"
       id="tspan792"
       x="114.40829"
       y="84.814674" /></text>
  <text
     xml:space="preserve"
     style="font-size:16px;fill:#ffffff;fill-opacity:1"
     x="111.84121"
     y="70.628044"
     id="text798"><tspan
       sodipodi:role="line"
       id="tspan796"
       x="111.84121"
       y="70.628044"
       style="font-style:normal;font-variant:normal;font-weight:300;font-stretch:normal;font-size:18.6667px;font-family:Bahnschrift;-inkscape-font-specification:'Bahnschrift Light';fill:#ffffff">qr плацяжы</tspan></text>
  <text
     xml:space="preserve"
     id="text850"
     style="font-style:normal;font-variant:normal;font-weight:300;font-stretch:normal;font-size:18.6667px;font-family:Bahnschrift;-inkscape-font-specification:'Bahnschrift Light';white-space:pre;shape-inside:url(#rect852);fill:#5b5e67;fill-opacity:1" />
</svg>
