<?xml version="1.0" encoding="UTF-8" standalone="no"?>
<svg
   width="108"
   height="140"
   viewBox="0 0 108 140"
   fill="none"
   version="1.1"
   id="svg79"
   sodipodi:docname="epos_by_white_vertical.svg"
   inkscape:export-filename="epos_by.jpg"
   inkscape:export-xdpi="300"
   inkscape:export-ydpi="300"
   inkscape:version="1.2.2 (732a01da63, 2022-12-09)"
   xmlns:inkscape="http://www.inkscape.org/namespaces/inkscape"
   xmlns:sodipodi="http://sodipodi.sourceforge.net/DTD/sodipodi-0.dtd"
   xmlns="http://www.w3.org/2000/svg"
   xmlns:svg="http://www.w3.org/2000/svg">
  <defs
     id="defs83">
    <rect
       x="106.93361"
       y="58.577045"
       width="130.12036"
       height="21.356215"
       id="rect852" />
  </defs>
  <sodipodi:namedview
     id="namedview81"
     pagecolor="#ffffff"
     bordercolor="#000000"
     borderopacity="0.25"
     inkscape:showpageshadow="2"
     inkscape:pageopacity="0.0"
     inkscape:pagecheckerboard="0"
     inkscape:deskcolor="#d1d1d1"
     showgrid="false"
     inkscape:zoom="2.3177083"
     inkscape:cx="171.07416"
     inkscape:cy="36.458427"
     inkscape:window-width="1920"
     inkscape:window-height="1010"
     inkscape:window-x="-7"
     inkscape:window-y="-7"
     inkscape:window-maximized="1"
     inkscape:current-layer="svg79" />
  <path
     d="m 19.409585,129.04474 c -2.79218,0 -5.02347,-0.86229 -6.69303,-2.58688 -1.66956,-1.75193 -2.58687,-4.1335 -2.7511203,-7.1447 l -0.0411,-1.39609 0.0411,-1.35504 c 0.1642503,-2.95643 1.0815603,-5.31057 2.7511203,-7.06258 1.66956,-1.75193 3.90085,-2.62794 6.69303,-2.62794 3.01146,0 5.338,0.95813 6.98046,2.87431 1.66957,1.91626 2.50475,4.51677 2.50475,7.80169 v 0.73911 c 0,0.2738 -0.0961,0.50645 -0.28742,0.69804 -0.16425,0.16425 -0.38352,0.24637 -0.65699,0.24637 h -14.24835 v 0.36956 c 0.0821,1.77936 0.62988,3.29863 1.64246,4.55783 1.01258,1.25927 2.35447,1.88883 4.02403,1.88883 1.28687,0 2.32654,-0.24637 3.12068,-0.73911 0.82122,-0.52008 1.43715,-1.05388 1.84777,-1.6014 0.24636,-0.32849 0.43771,-0.52008 0.57486,-0.57486 0.13715,-0.0821 0.36955,-0.12319 0.69805,-0.12319 h 1.8067 c 0.24637,0 0.45168,0.0685 0.61593,0.20531 0.19134,0.1369 0.28742,0.31486 0.28742,0.5338 0,0.60229 -0.36955,1.32769 -1.10866,2.17626 -0.73911,0.84866 -1.79274,1.58777 -3.16174,2.21733 -1.34107,0.60229 -2.88827,0.90335 -4.63995,0.90335 z m 5.74861,-12.60589 v -0.12319 c 0,-1.91617 -0.51983,-3.47651 -1.56033,-4.68101 -1.0405,-1.20442 -2.4366,-1.80671 -4.18828,-1.80671 -1.77961,0 -3.1757,0.60229 -4.18827,1.80671 -1.01258,1.2045 -1.51928,2.76484 -1.51928,4.68101 v 0.12319 z m 9.71517,19.99697 c -0.27429,0 -0.5067,-0.0821 -0.69805,-0.24637 -0.16425,-0.16425 -0.24637,-0.3969 -0.24637,-0.69805 v -27.26486 c 0,-0.30106 0.0821,-0.5338 0.24637,-0.69804 0.19135,-0.16425 0.42376,-0.24637 0.69805,-0.24637 h 1.72458 c 0.30057,0 0.5338,0.0821 0.69805,0.24637 0.16425,0.16424 0.24636,0.39698 0.24636,0.69804 v 1.80671 c 1.58744,-2.10777 3.84583,-3.16174 6.77516,-3.16174 2.8743,0 5.02264,0.91707 6.44665,2.75113 1.4503,1.8067 2.21733,4.11986 2.29946,6.93939 0.0271,0.30115 0.0411,0.76654 0.0411,1.3961 0,0.62963 -0.0139,1.09502 -0.0411,1.39609 -0.0822,2.79218 -0.84916,5.10534 -2.29946,6.9394 -1.42401,1.83413 -3.57235,2.75112 -6.44665,2.75112 -2.92933,0 -5.14665,-1.04017 -6.65197,-3.12068 v 9.56734 c 0,0.2738 -0.0961,0.49274 -0.28743,0.65699 -0.16425,0.19167 -0.38352,0.28743 -0.65698,0.28743 z m 8.66397,-10.59388 c 1.97096,0 3.40812,-0.61592 4.31147,-1.84777 0.90336,-1.23184 1.39609,-2.84688 1.47822,-4.84526 0.0271,-0.27372 0.0411,-0.67062 0.0411,-1.19078 0,-5.25588 -1.94386,-7.88382 -5.83074,-7.88382 -1.91675,0 -3.36705,0.64335 -4.35252,1.92989 -0.95838,1.25928 -1.46508,2.75113 -1.51928,4.47571 -0.028,0.30115 -0.0411,0.83495 -0.0411,1.6014 0,0.76654 0.0131,1.30034 0.0411,1.6014 0.0542,1.66989 0.57486,3.12068 1.56034,4.35252 1.01258,1.2045 2.44973,1.80671 4.31146,1.80671 z m 23.3944,3.2028 c -3.01063,0 -5.338,-0.84858 -6.98046,-2.54582 -1.61453,-1.69715 -2.47683,-3.95553 -2.58688,-6.77515 l -0.0411,-1.76564 0.0411,-1.76565 c 0.11001,-2.81953 0.98549,-5.07792 2.62795,-6.77515 1.67038,-1.69716 3.98296,-2.54582 6.93939,-2.54582 2.95644,0 5.25589,0.84866 6.89834,2.54582 1.67039,1.69723 2.55978,3.95562 2.669,6.77515 0.055,0.60229 0.0822,1.19079 0.0822,1.76565 0,0.57486 -0.0271,1.16343 -0.0822,1.76564 -0.10923,2.81962 -0.98548,5.078 -2.62793,6.77515 -1.61455,1.69724 -3.92796,2.54582 -6.93941,2.54582 z m 0,-3.07961 c 1.75251,0 3.13464,-0.54744 4.14723,-1.64247 1.04049,-1.12229 1.60139,-2.72369 1.68352,-4.8042 0.0279,-0.27371 0.0411,-0.7938 0.0411,-1.56033 0,-0.76646 -0.0131,-1.28654 -0.0411,-1.56034 -0.0822,-2.08043 -0.64303,-3.66811 -1.68352,-4.76314 -1.01259,-1.12229 -2.39472,-1.68352 -4.14723,-1.68352 -1.75168,0 -3.14777,0.56123 -4.18828,1.68352 -1.01257,1.09503 -1.56033,2.68271 -1.64245,4.76314 l -0.0411,1.56034 0.0411,1.56033 c 0.0822,2.08051 0.62988,3.68191 1.64245,4.8042 1.04051,1.09503 2.4366,1.64247 4.18828,1.64247 z m 22.14284,3.07961 c -1.88883,0 -3.49022,-0.30106 -4.8042,-0.90335 -1.28604,-0.62956 -2.24442,-1.34132 -2.8743,-2.1352 -0.62906,-0.79381 -0.94441,-1.45079 -0.94441,-1.97096 0,-0.27371 0.0961,-0.47902 0.28742,-0.61592 0.19218,-0.16425 0.39748,-0.24637 0.61593,-0.24637 h 1.72458 c 0.16425,0 0.28744,0.0274 0.36956,0.0821 0.11,0.0548 0.24636,0.17796 0.41061,0.36956 0.62989,0.76653 1.32794,1.36874 2.09415,1.8067 0.79412,0.43805 1.84775,0.65699 3.16173,0.65699 1.47822,0 2.65586,-0.27372 3.53129,-0.82123 0.90336,-0.54743 1.35503,-1.34132 1.35503,-2.38157 0,-0.68433 -0.19135,-1.23185 -0.57486,-1.64246 -0.38269,-0.41062 -1.02654,-0.78017 -1.9299,-1.10866 -0.87542,-0.3285 -2.18939,-0.68434 -3.9419,-1.0676 -2.38157,-0.52009 -4.06509,-1.27291 -5.05057,-2.25839 -0.98547,-0.98547 -1.47821,-2.25838 -1.47821,-3.81872 0,-1.01282 0.30139,-1.98459 0.90335,-2.91537 0.60278,-0.95805 1.49218,-1.72458 2.669,-2.29945 1.20475,-0.6022 2.62793,-0.90335 4.2704,-0.90335 1.72459,0 3.18966,0.28743 4.39358,0.86229 1.23185,0.57486 2.14917,1.24556 2.75113,2.01202 0.62988,0.76653 0.94441,1.40981 0.94441,1.92989 0,0.24637 -0.0953,0.45168 -0.28742,0.61592 -0.16425,0.16425 -0.36957,0.24637 -0.61593,0.24637 h -1.56034 c -0.38269,0 -0.65699,-0.15053 -0.82123,-0.45167 -0.46482,-0.52009 -0.86229,-0.91699 -1.19078,-1.19079 -0.30058,-0.30106 -0.75225,-0.54743 -1.35503,-0.73911 -0.60197,-0.21894 -1.35504,-0.32849 -2.25839,-0.32849 -1.34107,0 -2.3676,0.28743 -3.07961,0.86229 -0.71119,0.54752 -1.0676,1.28663 -1.0676,2.21733 0,0.57486 0.1511,1.0676 0.45167,1.47821 0.30139,0.38327 0.87625,0.75282 1.72459,1.10866 0.84914,0.3285 2.10809,0.6707 3.77766,1.02654 2.60083,0.54752 4.43464,1.32768 5.50224,2.34051 1.09552,1.0129 1.64247,2.31316 1.64247,3.90084 0,1.17716 -0.34164,2.24476 -1.02655,3.2028 -0.65698,0.95813 -1.6556,1.71096 -2.99749,2.25839 -1.31396,0.54751 -2.88744,0.82123 -4.72208,0.82123 z"
     fill="#000000"
     id="path49"
     style="fill:#ffffff;stroke-width:0.82123" />
  <path
     d="m 33.426273,23.148191 c 0.874934,0 1.584317,0.707243 1.584317,1.579637 v 7.371776 c 0,0.872394 -0.709383,1.579638 -1.584317,1.579638 h -7.39354 c -0.875024,0 -1.584317,-0.707244 -1.584317,-1.579638 v -7.371776 c 0,-0.872394 0.709293,-1.579637 1.584317,-1.579637 z"
     fill="#ec3e37"
     id="path51"
     style="fill:#ffffff;stroke-width:0.82123" />
  <path
     fill-rule="evenodd"
     clip-rule="evenodd"
     d="m 43.196205,7.3515731 c 4.375027,0 7.921594,3.5361939 7.921594,7.8983089 V 49.47586 H 16.790866 c -4.374983,0 -7.9216095,-3.536137 -7.9216095,-7.898268 v -26.32771 c 0,-4.362115 3.5466265,-7.8983089 7.9216095,-7.8983089 z M 42.14002,12.617107 c 2.041658,0 3.696686,1.65023 3.696686,3.68588 v 24.221458 c 0,2.035667 -1.655028,3.68593 -3.696686,3.68593 H 17.847117 c -2.041702,0 -3.696786,-1.650263 -3.696786,-3.68593 V 16.302987 c 0,-2.03565 1.655084,-3.68588 3.696786,-3.68588 z"
     fill="#ec3e37"
     id="path53"
     style="fill:#ffffff;stroke-width:0.82123" />
  <path
     d="m 73.826385,23.148191 c -0.874946,0 -1.584317,0.707243 -1.584317,1.579637 v 7.371776 c 0,0.872394 0.709371,1.579638 1.584317,1.579638 h 7.39354 c 0.875023,0 1.584317,-0.707244 1.584317,-1.579638 v -7.371776 c 0,-0.872394 -0.709294,-1.579637 -1.584317,-1.579637 z"
     fill="#ec3e37"
     id="path55"
     style="fill:#ffffff;stroke-width:0.82123" />
  <path
     fill-rule="evenodd"
     clip-rule="evenodd"
     d="m 64.056453,7.3515731 c -4.375028,0 -7.921594,3.5361939 -7.921594,7.8983089 V 49.47586 h 34.326944 c 4.374694,0 7.921594,-3.536137 7.921594,-7.898268 v -26.32771 c 0,-4.362115 -3.5469,-7.8983089 -7.921594,-7.8983089 z m 1.056185,5.2655339 c -2.041669,0 -3.696776,1.65023 -3.696776,3.68588 v 24.221458 c 0,2.035667 1.655107,3.68593 3.696776,3.68593 H 89.40554 c 2.041747,0 3.69652,-1.650263 3.69652,-3.68593 V 16.302987 c 0,-2.03565 -1.654773,-3.68588 -3.69652,-3.68588 z"
     fill="#ec3e37"
     id="path57"
     style="fill:#ffffff;stroke-width:0.82123" />
  <path
     d="m 87.821224,56.321064 c 0,-0.872393 0.709371,-1.579638 1.584316,-1.579638 h 2.11237 c 0.875424,0 1.58415,0.707245 1.58415,1.579638 v 3.685847 h -5.280836 z"
     fill="#ec3e37"
     id="path59"
     style="fill:#ffffff;stroke-width:0.82123" />
  <path
     d="m 93.10206,70.538044 h -3.69652 c -0.874945,0 -1.584316,-0.707244 -1.584316,-1.57972 v -8.951413 h -3.696687 c -0.875023,0 -1.584328,0.707243 -1.584328,1.579719 v 2.106211 c 0,0.872393 -0.709371,1.579637 -1.584316,1.579637 h -2.112448 c -0.875024,0 -1.584317,0.707243 -1.584317,1.579637 v 2.106209 c 0,0.872476 0.709293,1.57972 1.584317,1.57972 h 2.112448 c 0.874945,0 1.584316,0.707244 1.584316,1.579638 v 8.951413 h -3.696764 c -0.875024,0 -1.584317,0.707244 -1.584317,1.579637 v 2.106211 c 0,0.872475 -0.709293,1.57972 -1.584317,1.57972 h -3.696775 v -3.685931 c 0,-0.872393 -0.709294,-1.579637 -1.584317,-1.579637 h -2.112448 c -0.874945,0 -1.584317,0.707244 -1.584317,1.579637 v 2.106211 c 0,0.872475 0.709372,1.57972 1.584317,1.57972 h 3.696765 v 8.950998 c 0,0.872975 0.709304,1.580052 1.584316,1.580052 h 2.112459 c 0.875024,0 1.584317,-0.707077 1.584317,-1.580052 v -2.105634 c 0,-0.872964 0.709293,-1.580041 1.584317,-1.580041 h 2.112448 c 0.874945,0 1.584316,-0.707078 1.584316,-1.579229 v -8.951662 h 3.696698 c 0.875012,0 1.584317,-0.707243 1.584317,-1.579636 v -2.106211 c 0,-0.872475 0.709371,-1.57972 1.584316,-1.57972 h 3.69652 v 8.951415 c 0,0.872475 0.709549,1.57972 1.584973,1.57972 h 2.112204 c 0.874611,0 1.58416,-0.707245 1.58416,-1.57972 v -7.371695 c 0,-0.872475 -0.709549,-1.57972 -1.58416,-1.57972 H 93.10206 Z"
     fill="#ec3e37"
     id="path61"
     style="fill:#ffffff;stroke-width:0.82123" />
  <path
     d="m 93.10206,70.538044 h 3.697177 c 0.874611,0 1.58416,-0.707244 1.58416,-1.57972 V 61.58663 c 0,-0.872476 -0.709549,-1.579719 -1.58416,-1.579719 H 93.10206 Z"
     fill="#ec3e37"
     id="path63"
     style="fill:#ffffff;stroke-width:0.82123" />
  <path
     d="m 66.696954,61.58663 c 0,-0.872476 0.709372,-1.579719 1.584317,-1.579719 h 3.696765 v 8.951413 c 0,0.872476 -0.709294,1.57972 -1.584317,1.57972 h -2.112448 c -0.874945,0 -1.584317,0.707244 -1.584317,1.579638 v 2.106209 c 0,0.872476 -0.709304,1.579637 -1.584316,1.579637 h -2.11237 c -0.875024,0 -1.584406,-0.707161 -1.584406,-1.579637 v -2.106209 c 0,-0.872394 -0.709293,-1.579638 -1.584316,-1.579638 h -2.112371 c -0.875023,0 -1.584316,-0.707244 -1.584316,-1.57972 v -2.106209 c 0,-0.872394 0.709293,-1.579637 1.584316,-1.579637 h 7.393463 c 0.875012,0 1.584316,-0.707244 1.584316,-1.579637 z"
     fill="#ec3e37"
     id="path65"
     style="fill:#ffffff;stroke-width:0.82123" />
  <path
     d="m 75.674811,60.006911 h -3.696775 v -3.685847 c 0,-0.872393 0.709304,-1.579638 1.584316,-1.579638 h 2.112459 c 0.875024,0 1.584317,0.707245 1.584317,1.579638 v 2.10621 c 0,0.872476 -0.709293,1.579637 -1.584317,1.579637 z"
     fill="#ec3e37"
     id="path67"
     style="fill:#ffffff;stroke-width:0.82123" />
  <path
     d="m 96.799237,91.599986 c 0.874611,0 1.58416,0.707077 1.58416,1.580041 v 2.105634 c 0,0.872975 -0.709549,1.580052 -1.58416,1.580052 H 89.40554 c -0.874945,0 -1.584316,-0.707077 -1.584316,-1.580052 v -2.105634 c 0,-0.872964 0.709371,-1.580041 1.584316,-1.580041 z"
     fill="#ec3e37"
     id="path69"
     style="fill:#ffffff;stroke-width:0.82123" />
  <path
     d="m 66.696954,93.180027 c 0,-0.872964 -0.709304,-1.580041 -1.584316,-1.580041 h -2.11237 c -0.875024,0 -1.584406,0.707077 -1.584406,1.580041 v 2.105634 c 0,0.872975 0.709382,1.580052 1.584406,1.580052 h 2.11237 c 0.875012,0 1.584316,-0.707077 1.584316,-1.580052 z"
     fill="#ec3e37"
     id="path71"
     style="fill:#ffffff;stroke-width:0.82123" />
  <path
     d="m 56.134859,56.321064 c 0,-0.872393 0.709293,-1.579638 1.584316,-1.579638 h 2.112371 c 0.875023,0 1.584316,0.707245 1.584316,1.579638 v 2.10621 c 0,0.872476 -0.709293,1.579637 -1.584316,1.579637 h -2.112371 c -0.875023,0 -1.584316,-0.707161 -1.584316,-1.579637 z"
     fill="#ec3e37"
     id="path73"
     style="fill:#ffffff;stroke-width:0.82123" />
  <path
     d="m 33.426273,81.069095 c 0.874934,0 1.584317,-0.707243 1.584317,-1.579636 v -7.371777 c 0,-0.872394 -0.709383,-1.579638 -1.584317,-1.579638 h -7.39354 c -0.875024,0 -1.584317,0.707244 -1.584317,1.579638 v 7.371777 c 0,0.872393 0.709293,1.579636 1.584317,1.579636 z"
     fill="#ec3e37"
     id="path75"
     style="fill:#ffffff;stroke-width:0.82123" />
  <path
     fill-rule="evenodd"
     clip-rule="evenodd"
     d="m 43.196205,96.865713 c 4.375027,0 7.921594,-3.536223 7.921594,-7.898268 V 54.741426 H 16.790866 c -4.374983,0 -7.9216095,3.536137 -7.9216095,7.898268 v 26.327751 c 0,4.362045 3.5466265,7.898268 7.9216095,7.898268 z M 42.14002,91.599986 c 2.041658,0 3.696686,-1.649852 3.696686,-3.685687 V 63.692841 c 0,-2.035667 -1.655028,-3.68593 -3.696686,-3.68593 H 17.847117 c -2.041702,0 -3.696786,1.650263 -3.696786,3.68593 v 24.221458 c 0,2.035835 1.655084,3.685687 3.696786,3.685687 z"
     fill="#ec3e37"
     id="path77"
     style="fill:#ffffff;stroke-width:0.82123" />
  <text
     xml:space="preserve"
     style="fill:#ffffff"
     x="141.2561"
     y="90.763908"
     id="text393"><tspan
       sodipodi:role="line"
       id="tspan391"
       x="141.2561"
       y="90.763908" /></text>
  <text
     xml:space="preserve"
     style="fill:#ffffff;fill-opacity:1"
     x="114.40829"
     y="84.814674"
     id="text794"><tspan
       sodipodi:role="line"
       id="tspan792"
       x="114.40829"
       y="84.814674" /></text>
  <text
     xml:space="preserve"
     id="text850"
     style="font-style:normal;font-variant:normal;font-weight:300;font-stretch:normal;font-size:18.6667px;font-family:Bahnschrift;-inkscape-font-specification:'Bahnschrift Light';white-space:pre;shape-inside:url(#rect852);fill:#ffffff;fill-opacity:1" />
</svg>
